<?xml version="1.0" encoding="UTF-8"?>
<svg version="1.1" xmlns="http://www.w3.org/2000/svg" width="512" height="512">
<path d="M0 0 C168.96 0 337.92 0 512 0 C512 168.96 512 337.92 512 512 C343.04 512 174.08 512 0 512 C0 343.04 0 174.08 0 0 Z " fill="#000000" transform="translate(0,0)"/>
<path d="M0 0 C12.33863376 -0.89675131 21.673746 1.19147936 33 6 C33.80518066 6.33209473 34.61036133 6.66418945 35.43994141 7.00634766 C44.71029252 10.85295891 53.29407301 15.01358255 61.625 20.625 C67.35261524 24.50890607 67.35261524 24.50890607 74.0625 25.3125 C75.72104251 24.92596365 77.36700189 24.48320885 79 24 C81.24680639 23.52625907 83.49725648 23.06965276 85.75 22.625 C86.38607178 22.49673828 87.02214355 22.36847656 87.67749023 22.23632812 C89.78320526 21.8144208 91.89092963 21.40479483 94 21 C94.73573242 20.85739746 95.47146484 20.71479492 96.22949219 20.56787109 C120.53078537 16.06177242 147.45585813 15.88336014 171.74316406 20.56787109 C174.13350993 21.02556389 176.52886114 21.43315529 178.9296875 21.83203125 C190.1515625 23.7171875 190.1515625 23.7171875 194 25 C200.01914631 25.62367058 203.33982247 23.98730638 208.125 20.625 C226.50564929 8.46825434 246.65559368 -1.32128552 269 0 C278.80277175 20.60074875 280.42923985 44.80157545 273.15625 66.51953125 C272.74120944 69.13374259 272.74120944 69.13374259 274.58984375 71.40234375 C275.36457031 72.23894531 276.13929688 73.07554687 276.9375 73.9375 C292.95370394 92.49437704 298.65344615 115.17623063 298.375 139.25 C298.36851944 140.32167923 298.36851944 140.32167923 298.36190796 141.41500854 C298.23733837 159.06433261 296.07329338 175.39373546 290 192 C289.64566895 192.98057373 289.64566895 192.98057373 289.28417969 193.98095703 C279.38809206 220.99979332 261.42780372 237.83180219 235.734375 250.3359375 C220.80653474 257.16123345 205.32109837 260.631827 189.08203125 262.5703125 C185.97002747 262.90876697 185.97002747 262.90876697 183 264 C183.44730469 264.53367187 183.89460938 265.06734375 184.35546875 265.6171875 C194.6179682 278.26478811 199.13557337 292.14596215 199.15771484 308.40454102 C199.16279556 309.22643921 199.16787628 310.0483374 199.17311096 310.8951416 C199.1837707 312.67115291 199.19240792 314.44717728 199.19923019 316.22320747 C199.21106986 319.03534476 199.23053299 321.84733196 199.25234985 324.65940857 C199.31381449 332.65171324 199.36807191 340.6439988 199.40136719 348.63647461 C199.42230786 353.53238804 199.45759752 358.4280211 199.50212479 363.32377434 C199.51627995 365.18684531 199.52500613 367.0499658 199.52817917 368.91308784 C199.53308643 371.5173089 199.55623647 374.12078401 199.58349609 376.72485352 C199.58048996 377.49226364 199.57748383 378.25967377 199.5743866 379.05033875 C199.66071898 384.60249431 200.94362 387.79129556 204.6875 391.8125 C208.67649537 393.86090303 212.96140825 393.51610202 217.21704102 392.4387207 C219.65911864 391.6170211 222.04539771 390.70757752 224.4375 389.75 C225.33275391 389.399375 226.22800781 389.04875 227.15039062 388.6875 C243.32653179 382.2037207 259.57655509 374.8523784 274 365 C274.64839844 364.56220215 275.29679687 364.1244043 275.96484375 363.67333984 C285.81377349 356.99820512 295.11272449 349.90647258 304 342 C304.50337891 341.55833496 305.00675781 341.11666992 305.52539062 340.66162109 C313.56385243 333.5957203 320.95786818 326.057436 328 318 C328.51143555 317.41686035 329.02287109 316.8337207 329.54980469 316.23291016 C366.6452991 273.46330741 386.18223083 220.00946723 390 164 C390.33 164 390.66 164 391 164 C391 241.88 391 319.76 391 400 C222.04 400 53.08 400 -121 400 C-121 322.12 -121 244.24 -121 164 C-120.67 164 -120.34 164 -120 164 C-119.96559814 164.56581787 -119.93119629 165.13163574 -119.89575195 165.71459961 C-115.46556759 234.29660089 -84.47432101 297.46515397 -33.21484375 343.2890625 C-11.52047956 361.85277788 12.11291385 375.98530937 38.41992188 386.92675781 C40.64512604 387.8523821 42.86210649 388.79489052 45.078125 389.7421875 C52.36987574 392.74367559 57.70730481 394.58988711 65.375 391.75 C68.20033251 389.86644499 68.8099704 389.08308686 70 386 C70.32455754 383.49745932 70.32455754 383.49745932 70.31884766 380.77246094 C70.33871735 379.73168396 70.35858704 378.69090698 70.37905884 377.61859131 C70.39061005 376.50179993 70.40216125 375.38500854 70.4140625 374.234375 C70.43342865 373.08584045 70.4527948 371.93730591 70.4727478 370.75396729 C70.53252126 367.0860537 70.57892064 363.41810871 70.625 359.75 C70.66318178 357.26300716 70.70223362 354.77602751 70.7421875 352.2890625 C70.83822105 346.19282547 70.92327529 340.09650896 71 334 C69.64612183 334.21221191 69.64612183 334.21221191 68.26489258 334.42871094 C61.37207233 335.46868832 54.66104107 336.34095923 47.6875 336.25 C46.89263184 336.24250732 46.09776367 336.23501465 45.27880859 336.22729492 C26.73932714 335.89826784 9.37532821 333.01618812 -5.02734375 320.1953125 C-10.06971721 314.87709804 -12.93119127 308.58248162 -16 302 C-23.11179555 286.94040073 -30.51126092 274.89318623 -44.1875 264.9375 C-47.78005455 262.27503368 -50.49127257 259.7226278 -53 256 C-53 253.75 -53 253.75 -52 252 C-47.05456512 248.70304342 -41.77305448 249.38963301 -36 250 C-20.8120286 254.18978521 -9.35832808 264.60891428 -0.9375 277.5 C6.7937881 289.32934866 15.59989527 299.40886277 30 303 C33.02664488 303.27143174 36.02537765 303.28495837 39.0625 303.25 C40.32114868 303.24093628 40.32114868 303.24093628 41.60522461 303.23168945 C52.15709286 303.06506506 62.0015651 301.38547457 72 298 C72.14695313 296.87464844 72.14695313 296.87464844 72.296875 295.7265625 C74.08514063 283.48619258 78.04180442 272.95819558 87 264 C85.86046875 263.84144531 84.7209375 263.68289063 83.546875 263.51953125 C50.72017367 258.76737524 17.0497026 248.51994534 -4.76953125 221.8359375 C-21.82117032 198.81814932 -28.16381576 170.25790728 -28.24023438 142.10083008 C-28.24987179 139.96590152 -28.28095148 137.83196681 -28.3125 135.69726562 C-28.41191911 122.94993527 -27.06620334 110.16249849 -21.875 98.375 C-21.57859619 97.67971191 -21.28219238 96.98442383 -20.97680664 96.26806641 C-17.0609823 87.42952022 -11.95954407 79.04147446 -5.375 71.9375 C-4.59125 70.968125 -3.8075 69.99875 -3 69 C-3.20184956 66.57511627 -3.20184956 66.57511627 -4 64 C-4.2371875 63.12601563 -4.474375 62.25203125 -4.71875 61.3515625 C-4.9765625 60.45179688 -5.234375 59.55203125 -5.5 58.625 C-10.72603182 39.47987856 -7.69680012 18.17681813 0 0 Z " fill="#FEFEFE" transform="translate(121,112)"/>
<path d="M0 0 C168.96 0 337.92 0 512 0 C512 79.86 512 159.72 512 242 C511.67 242 511.34 242 511 242 C510.90501221 241.19594727 510.81002441 240.39189453 510.7121582 239.56347656 C508.7742838 223.43944145 506.70059936 207.59385931 502 192 C501.72704102 191.0812207 501.45408203 190.16244141 501.17285156 189.21582031 C489.86955894 151.78381147 470.54202151 119.38978829 445 90 C444.20207031 89.07703125 443.40414063 88.1540625 442.58203125 87.203125 C438.6410112 82.72623476 434.62106015 78.58788519 430.0546875 74.75 C428.65357578 73.5566577 427.28431673 72.32513517 425.9453125 71.0625 C413.42057405 59.27451087 399.04769416 49.28782793 384 41 C383.17048828 40.53883789 382.34097656 40.07767578 381.48632812 39.60253906 C352.91098519 23.83789366 322.34338055 12.85375778 289.875 8.8125 C289.18501923 8.72595154 288.49503845 8.63940308 287.78414917 8.55023193 C239.70284095 2.64399923 190.75723691 10.36318141 147 31 C146.33822754 31.30631348 145.67645508 31.61262695 144.99462891 31.92822266 C127.84617696 39.90154206 111.57911631 49.94971858 97 62 C96.47003418 62.43521973 95.94006836 62.87043945 95.39404297 63.31884766 C84.62023849 72.19007807 73.94380124 81.24820453 65 92 C64.20464844 92.89589844 63.40929688 93.79179688 62.58984375 94.71484375 C26.11235183 136.06492542 6.78820854 187.72923771 1 242 C0.67 242 0.34 242 0 242 C0 162.14 0 82.28 0 0 Z " fill="#FEFEFE" transform="translate(0,0)"/>
</svg>
